<?xml version="1.0" encoding="UTF-8" standalone="no"?>
<!-- Uploaded to: SVG Repo, www.svgrepo.com, Generator: SVG Repo Mixer Tools -->

<svg
   width="800px"
   height="800px"
   viewBox="0 0 24 24"
   fill="none"
   version="1.1"
   id="svg14"
   sodipodi:docname="calendar-search.svg"
   inkscape:version="1.2.2 (b0a8486541, 2022-12-01)"
   xmlns:inkscape="http://www.inkscape.org/namespaces/inkscape"
   xmlns:sodipodi="http://sodipodi.sourceforge.net/DTD/sodipodi-0.dtd"
   xmlns="http://www.w3.org/2000/svg"
   xmlns:svg="http://www.w3.org/2000/svg">
  <defs
     id="defs18" />
  <sodipodi:namedview
     id="namedview16"
     pagecolor="#ffffff"
     bordercolor="#000000"
     borderopacity="0.25"
     inkscape:showpageshadow="2"
     inkscape:pageopacity="0.0"
     inkscape:pagecheckerboard="0"
     inkscape:deskcolor="#d1d1d1"
     showgrid="false"
     inkscape:zoom="0.67"
     inkscape:cx="400.74627"
     inkscape:cy="400"
     inkscape:window-width="1366"
     inkscape:window-height="691"
     inkscape:window-x="0"
     inkscape:window-y="501"
     inkscape:window-maximized="1"
     inkscape:current-layer="svg14" />
  <path
     d="M22 14V12C22 8.22876 22 6.34315 20.8284 5.17157C19.6569 4 17.7712 4 14 4M14 22H10C6.22876 22 4.34315 22 3.17157 20.8284C2 19.6569 2 17.7712 2 14V12C2 8.22876 2 6.34315 3.17157 5.17157C4.34315 4 6.22876 4 10 4"
     stroke="#1C274C"
     stroke-width="1.5"
     stroke-linecap="round"
     id="path2"
     style="stroke:#ffffff;stroke-opacity:1" />
  <path
     d="M7 4V2.5"
     stroke="#1C274C"
     stroke-width="1.5"
     stroke-linecap="round"
     id="path4"
     style="stroke:#ffffff;stroke-opacity:1" />
  <path
     d="M17 4V2.5"
     stroke="#1C274C"
     stroke-width="1.5"
     stroke-linecap="round"
     id="path6"
     style="stroke:#ffffff;stroke-opacity:1" />
  <circle
     cx="18"
     cy="18"
     r="3"
     stroke="#1C274C"
     stroke-width="1.5"
     id="circle8"
     style="stroke:#ffffff;stroke-opacity:1" />
  <path
     d="M20.5 20.5L22 22"
     stroke="#1C274C"
     stroke-width="1.5"
     stroke-linecap="round"
     id="path10"
     style="stroke:#ffffff;stroke-opacity:1" />
  <path
     d="M21.5 9H16.625H10.75M2 9H5.875"
     stroke="#1C274C"
     stroke-width="1.5"
     stroke-linecap="round"
     id="path12"
     style="stroke:#ffffff;stroke-opacity:1" />
</svg>
